PathFileType	4	(X/Y/Z)	./resultDataOpenSim/trcMotMarkerGrf/sub06/qtm-12-04.trc
DataRate	CameraRate	NumFrames	NumMarkers	Units	OrigDataRate	OrigDataStartFrame	OrigNumFrames
250.000000	250.000000	8	24	m	250.000000	470	537
Frame#	Time	L.Toe.Tip			R.Toe.Tip			L.Ankle.Lat			R.Ankle.Lat			L.Ankle.Med			R.Ankle.Med			L.Heel			R.Heel			L.Knee.Lat			R.Knee.Lat			L.Knee.Med			R.Knee.Med			L.Thigh.Upper			R.Thigh.Upper			L.ASIS			R.ASIS			V.Sacral			L.Acromium			R.Acromium			C7			L.Elbow			R.Elbow			L.Wrist.Lat			R.Wrist.Lat
		X1	Y1	Z1	X2	Y2	Z2	X3	Y3	Z3	X4	Y4	Z4	X5	Y5	Z5	X6	Y6	Z6	X7	Y7	Z7	X8	Y8	Z8	X9	Y9	Z9	X10	Y10	Z10	X11	Y11	Z11	X12	Y12	Z12	X13	Y13	Z13	X14	Y14	Z14	X15	Y15	Z15	X16	Y16	Z16	X17	Y17	Z17	X18	Y18	Z18	X19	Y19	Z19	X20	Y20	Z20	X21	Y21	Z21	X22	Y22	Z22	X23	Y23	Z23	X24	Y24	Z24

470	1.876	1.6546707	0.033958009	-0.028038877	1.4948229	0.074060775	0.15614213	1.5297013	0.068548213	-0.060861915	1.4104039	0.18312155	0.15439708	1.5262932	0.08467619	0.02492986	1.453749	0.18100392	0.075666414	1.4541734	0.041808522	-0.019844347	1.3653637	0.1937629	0.082786708	1.5966071	0.43831126	-0.078085975	1.6628223	0.46726936	0.19115679	1.5525488	0.44466652	0.03835269	1.6719295	0.45148424	0.05853227	1.559991	0.83135364	-0.15858121	1.5151482	0.81023704	0.18293024	1.624641	0.87989528	-0.10645742	1.6044018	0.87408603	0.13768884	1.4252121	0.94492871	0.0069109391	1.541673	1.345527	-0.18655789	1.5224825	1.3562888	0.17603411	1.4487057	1.381933	-0.013168327	1.5011415	1.0263138	-0.23217765	1.4443134	1.0488995	0.25388836	1.6631006	0.83966913	-0.25505471	1.5877672	0.85358782	0.27270022
471	1.88	1.6547017	0.033951689	-0.02807359	1.5129228	0.072788172	0.15701304	1.5297045	0.068657153	-0.060903864	1.4258251	0.17941321	0.15484297	1.5262395	0.084835965	0.024865846	1.4690244	0.17810821	0.075912247	1.4542214	0.042017581	-0.019803515	1.3802789	0.18846744	0.083427835	1.5970014	0.43823741	-0.07838631	1.6722863	0.46962035	0.19038561	1.5536182	0.44485206	0.038382062	1.6800758	0.4544368	0.058224984	1.5642829	0.83156559	-0.15865146	1.5218339	0.81168594	0.18325168	1.6293984	0.8804857	-0.10684665	1.6103183	0.87552027	0.13707404	1.4305143	0.94554786	0.0069194553	1.5473667	1.3467077	-0.18650664	1.5278686	1.3568979	0.17602163	1.4541263	1.3826294	-0.013180925	1.509006	1.0269385	-0.2326765	1.4472042	1.0502157	0.25346889	1.6743643	0.84270903	-0.25395017	1.5882069	0.85348243	0.27407933
472	1.884	1.6547353	0.033941393	-0.028110614	1.5312317	0.07150224	0.15780321	1.529714	0.068768177	-0.060938897	1.4414097	0.17558789	0.15530026	1.5264467	0.085059573	0.024820485	1.4844239	0.17513841	0.076182896	1.4542608	0.042243687	-0.019757204	1.3950708	0.18312012	0.084174587	1.5974052	0.43817737	-0.078716184	1.6816191	0.47191252	0.18956127	1.5548969	0.44503666	0.038294147	1.6880738	0.45725988	0.05782922	1.569003	0.83172021	-0.15861939	1.5285075	0.81306766	0.18357028	1.634169	0.88098262	-0.10720236	1.6162174	0.87686916	0.13646945	1.4358764	0.94614615	0.0071995886	1.5530205	1.3477474	-0.18643742	1.5332459	1.3574098	0.17602427	1.459548	1.3832638	-0.013177948	1.5168531	1.0275073	-0.23318173	1.4501029	1.0514568	0.25307594	1.6855829	0.84575531	-0.25281415	1.5887542	0.8533432	0.27545294
473	1.888	1.6547694	0.033925896	-0.028146937	1.5498835	0.070274725	0.15849955	1.5297324	0.06888274	-0.060960458	1.4571758	0.17165404	0.15577324	1.5267348	0.085307869	0.024786214	1.5001413	0.17209813	0.076483008	1.4542906	0.042492965	-0.019692168	1.4096388	0.17767916	0.084994786	1.5978227	0.43812773	-0.079071627	1.6908205	0.47414089	0.18869449	1.5562015	0.44521357	0.038134533	1.6959422	0.4599689	0.057314332	1.5739435	0.83180384	-0.15852262	1.535164	0.81437959	0.18388459	1.639036	0.88139535	-0.10750969	1.622086	0.87812707	0.1358806	1.4412711	0.9467077	0.0075843565	1.5586518	1.3486668	-0.18634781	1.53861	1.357823	0.1760504	1.4649728	1.3838285	-0.013165419	1.5246992	1.0279992	-0.23369765	1.4529711	1.0526163	0.25271119	1.6967553	0.84880284	-0.25163983	1.5893585	0.8531752	0.27682859
474	1.892	1.6548028	0.033905261	-0.028181834	1.5688275	0.06912969	0.15911972	1.5297613	0.069004372	-0.060964633	1.4731287	0.16762304	0.15626273	1.5269767	0.085551899	0.024758596	1.5163473	0.16897867	0.076762102	1.4543186	0.042762553	-0.01959632	1.4246108	0.17200294	0.085759599	1.5982677	0.43808034	-0.079441243	1.6998933	0.476291	0.18780227	1.5574629	0.44535887	0.038000048	1.703652	0.46254291	0.056719834	1.5787571	0.83180569	-0.15843139	1.5417988	0.81561897	0.18419316	1.644081	0.88172333	-0.10775864	1.6279338	0.87928587	0.1353169	1.4466982	0.94720319	0.0078924587	1.5642739	1.3494904	-0.18624282	1.543968	1.3581432	0.17610506	1.470403	1.3843136	-0.013142697	1.5325602	1.0284097	-0.23422765	1.4557015	1.0536976	0.25235243	1.7078714	0.85185081	-0.25042687	1.5899895	0.85298363	0.27821439
475	1.896	1.6548361	0.033881083	-0.028214974	1.5879614	0.068080483	0.15968349	1.529801	0.069135879	-0.060949664	1.4892611	0.16351264	0.15677009	1.527153	0.085783199	0.024740296	1.5330204	0.16575647	0.076919742	1.4543573	0.043039498	-0.019461835	1.4408666	0.16590077	0.086319638	1.5987569	0.43802689	-0.079810886	1.7088377	0.47834462	0.18689821	1.5586855	0.44545653	0.03794087	1.7111559	0.46494231	0.056176505	1.5833351	0.83172997	-0.15838576	1.5484067	0.81678284	0.18449446	1.6492121	0.88193426	-0.10797426	1.633755	0.88033748	0.13477871	1.4521425	0.94761934	0.0080945955	1.569888	1.3502308	-0.18612994	1.549332	1.3583804	0.17618694	1.4758407	1.3847217	-0.013108107	1.5404427	1.0287467	-0.23477475	1.4582373	1.0547059	0.25199208	1.7189204	0.85489946	-0.24918017	1.5906385	0.85277025	0.27961242
476	1.9	1.6548712	0.0338553	-0.028245379	1.6072201	0.067146581	0.16019464	1.5298496	0.069277887	-0.060915744	1.505567	0.15934685	0.15728994	1.5272961	0.086004524	0.024734445	1.5500171	0.16242664	0.076869971	1.4544152	0.0433114	-0.019293078	1.4583612	0.15946286	0.086737784	1.5992956	0.43796205	-0.080171401	1.717633	0.48029201	0.18598049	1.5599334	0.44551065	0.037909328	1.7184408	0.46714238	0.055789142	1.5877682	0.831579	-0.15839528	1.5549826	0.81786805	0.18478695	1.6541385	0.88197695	-0.10821511	1.6395226	0.88127687	0.13425603	1.4575721	0.94795252	0.0082762658	1.5754873	1.3508897	-0.18601312	1.5547024	1.3585385	0.17629134	1.4812863	1.3850667	-0.013062562	1.548341	1.0290187	-0.23533274	1.4607254	1.0556321	0.2516655	1.7299011	0.85794607	-0.24790373	1.5912983	0.85253195	0.28101726
477	1.904	1.6549106	0.033828691	-0.028273548	1.6265517	0.066307143	0.16065123	1.5299041	0.069429547	-0.060864958	1.5220498	0.15514729	0.15780983	1.5274519	0.086220612	0.024740971	1.5670704	0.15905981	0.076704841	1.4544932	0.043575684	-0.019107359	1.4756774	0.15322964	0.087357093	1.5998783	0.43788358	-0.080520531	1.7262473	0.4821315	0.18503896	1.5612529	0.4455355	0.037853497	1.725556	0.46913809	0.055509304	1.5921581	0.83134762	-0.15845381	1.5615214	0.8188717	0.18506907	1.6587106	0.88184437	-0.10851027	1.6452367	0.88210229	0.13374334	1.4629786	0.94820086	0.0084999453	1.581069	1.3514654	-0.18589292	1.5600666	1.358613	0.17641194	1.4867361	1.3853597	-0.013003896	1.5562348	1.0292267	-0.23588107	1.4634369	1.0564504	0.25141188	1.7408209	0.86098804	-0.24659754	1.5919654	0.85226398	0.28241793
